<svg width="32" height="32" viewBox="0 0 32 32" fill="none" xmlns="http://www.w3.org/2000/svg">
    <circle cx="16" cy="16" r="16" fill="#C53434"/>
    <path d="M23.667 12.561a1.753 1.753 0 0 0-.518-.8 2.07 2.07 0 0 0-.896-.462C21.005 11 16.002 11 16.002 11s-5.004 0-6.251.299c-.34.08-.65.24-.898.462a1.755 1.755 0 0 0-.52.8C8 13.676 8 16 8 16s0 2.324.334 3.439c.091.302.27.578.518.8.249.222.558.381.897.462C10.997 21 16 21 16 21s5.004 0 6.25-.299c.34-.08.65-.24.898-.462.248-.222.427-.498.518-.8C24 18.324 24 16 24 16s.002-2.324-.333-3.439zm-9.264 5.582v-4.286L18.558 16l-4.155 2.143z" fill="#fff"/>
</svg>
