<svg width="66" height="24" viewBox="0 0 66 24" fill="none" xmlns="http://www.w3.org/2000/svg">
    <path d="M15.133 14.844h.236v.884c.047-.07.096-.138.143-.2l.56-.696h.291l-.664.787.72 1.08h-.292l-.583-.912-.175.2v.711h-.236v-1.854zM17.276 16.727a.838.838 0 0 1-.62-.288.859.859 0 0 1-.208-.656c0-.59.361-.973.851-.973a.827.827 0 0 1 .62.281.843.843 0 0 1 .209.654c0 .64-.385.982-.834.982h-.018zm0-.198c.376 0 .584-.35.584-.772 0-.366-.193-.752-.584-.752-.39 0-.583.369-.583.772 0 .404.216.752.583.752zM18.434 14.872c.15-.03.302-.045.454-.044a.761.761 0 0 1 .534.153.476.476 0 0 1 .143.354.487.487 0 0 1-.344.468.465.465 0 0 1 .268.372c.03.178.075.352.137.522h-.245a2.185 2.185 0 0 1-.122-.445c-.056-.254-.155-.351-.367-.36h-.225v.805h-.236l.003-1.825zm.236.84h.242c.257 0 .414-.142.414-.35 0-.21-.172-.346-.423-.346a.973.973 0 0 0-.233.02v.676zM20.843 15.843h-.711v.666h.796v.204h-1.033v-1.87h.995v.201h-.758v.59h.711v.21zM21.531 16.114l-.19.59h-.256l.624-1.854h.292l.627 1.854h-.254l-.198-.59h-.645zm.604-.185-.175-.534c-.038-.12-.064-.233-.093-.339a3.65 3.65 0 0 1-.088.339l-.18.534h.536zM11.55 17.986v1.855h-.239v-1.855h.24zM11.965 19.84v-1.854h.262l.584.938c.121.189.23.386.326.59a7.665 7.665 0 0 1-.029-.758v-.77h.225v1.855h-.242l-.584-.938a5.723 5.723 0 0 1-.338-.619v1.557h-.204zM13.724 19.549a.84.84 0 0 0 .423.118c.242 0 .385-.127.385-.316 0-.188-.099-.274-.347-.365-.292-.103-.484-.262-.484-.522a.538.538 0 0 1 .37-.483.523.523 0 0 1 .213-.021.836.836 0 0 1 .4.088l-.067.198a.677.677 0 0 0-.342-.085c-.25 0-.344.147-.344.277 0 .13.108.253.362.353.312.124.467.272.467.543s-.207.533-.64.533a.957.957 0 0 1-.469-.12l.073-.198zM15.445 18.2h-.557v-.206h1.356v.207h-.56v1.647h-.24v-1.647zM16.687 17.986v1.855h-.239v-1.855h.24zM17.445 18.2h-.557v-.206h1.359v.207h-.563v1.647h-.24v-1.647zM18.687 17.986v1.1c0 .41.181.59.43.59.247 0 .442-.18.442-.59v-1.1h.24v1.1c0 .569-.292.799-.694.799-.403 0-.645-.23-.645-.8v-1.09l.227-.009zM20.56 18.2H20v-.206h1.36v.207h-.567v1.647h-.236l.003-1.647zM22.508 18.974H21.8v.666h.793v.2h-1.032v-1.854h.982v.215h-.752v.59h.709l.008.183zM9.71 23.013a.826.826 0 0 1-.617-.284.845.845 0 0 1-.205-.654c0-.59.359-.975.849-.975s.828.386.828.937c0 .637-.385.976-.849.976H9.71zm.015-.195c.376 0 .583-.348.583-.77 0-.368-.19-.754-.583-.754-.394 0-.583.375-.583.776 0 .4.21.748.583.748zM10.86 21.13h.989v.201h-.75v.616h.692v.198H11.1v.837h-.24v-1.851zM12.762 21.13h.988v.201H13v.616h.692v.198h-.691v.837h-.24v-1.851zM14.327 21.13v1.852h-.242v-1.851h.242zM14.738 22.982v-1.851h.266l.583.937c.119.191.228.388.327.59a9.017 9.017 0 0 1-.027-.76v-.779h.24v1.852h-.237l-.583-.944a4.74 4.74 0 0 1-.347-.604c0 .236.017.457.017.763v.793l-.239.003zM16.827 22.398l-.192.59h-.242l.61-1.857h.29l.625 1.851h-.245l-.198-.59-.648.006zm.6-.188-.183-.53a8.666 8.666 0 0 1-.09-.337c-.026.106-.053.221-.09.333l-.181.534h.545zM18.194 22.982v-1.851h.266l.583.937c.122.189.23.386.324.59a7.91 7.91 0 0 1-.03-.76v-.779h.222v1.852h-.224l-.584-.938a4.758 4.758 0 0 1-.338-.616v1.556l-.219.01zM21.263 22.918a1.098 1.098 0 0 1-.484.088.846.846 0 0 1-.663-.258.866.866 0 0 1-.24-.676.929.929 0 0 1 .262-.703.91.91 0 0 1 .694-.27c.15-.005.298.023.437.08l-.061.197a.811.811 0 0 0-.365-.077.676.676 0 0 0-.532.215.691.691 0 0 0-.182.549.673.673 0 0 0 .417.696c.09.036.186.05.283.044a.982.982 0 0 0 .388-.074l.046.189zM22.508 22.113H21.8v.669h.793v.2h-1.032v-1.851h.982v.2h-.752v.59h.709l.008.192zM6.346 3.204c0 .635-.185 1.256-.533 1.783A3.18 3.18 0 0 1 4.389 6.17a3.142 3.142 0 0 1-3.46-.695 3.24 3.24 0 0 1-.687-3.497A3.2 3.2 0 0 1 1.412.54a3.149 3.149 0 0 1 4.006.4c.594.6.928 1.416.928 2.265zM14.668 3.204a3.235 3.235 0 0 1-.532 1.786 3.184 3.184 0 0 1-1.424 1.185 3.145 3.145 0 0 1-3.463-.693 3.243 3.243 0 0 1-.691-3.5 3.203 3.203 0 0 1 1.17-1.44 3.152 3.152 0 0 1 4.009.395 3.212 3.212 0 0 1 .931 2.267zM22.987 3.204a3.236 3.236 0 0 1-.533 1.786 3.184 3.184 0 0 1-1.424 1.185 3.145 3.145 0 0 1-3.463-.693 3.243 3.243 0 0 1-.691-3.5 3.203 3.203 0 0 1 1.17-1.44A3.152 3.152 0 0 1 19.81 0c.84 0 1.647.338 2.243.94.595.6.93 1.414.933 2.264zM6.348 11.612c0 .634-.186 1.254-.535 1.782a3.181 3.181 0 0 1-1.424 1.181A3.141 3.141 0 0 1 .93 13.88a3.24 3.24 0 0 1-.686-3.496 3.2 3.2 0 0 1 1.17-1.44 3.149 3.149 0 0 1 4.007.4 3.207 3.207 0 0 1 .927 2.269zM14.668 11.612c.001.635-.185 1.256-.533 1.784-.349.528-.845.94-1.425 1.184a3.145 3.145 0 0 1-3.462-.694 3.242 3.242 0 0 1-.69-3.499 3.203 3.203 0 0 1 1.17-1.441 3.152 3.152 0 0 1 4.01.397 3.208 3.208 0 0 1 .93 2.269zM6.348 20.016c0 .635-.186 1.255-.535 1.782A3.181 3.181 0 0 1 4.39 22.98a3.141 3.141 0 0 1-3.459-.697 3.24 3.24 0 0 1-.686-3.496 3.2 3.2 0 0 1 1.17-1.44 3.149 3.149 0 0 1 4.007.401 3.208 3.208 0 0 1 .927 2.268zM45.875 23.211V.002h3.208v23.21h-3.208zM51.999 23.211V3.484c0-2.654 1.02-3.482 2.476-3.482h11.048v3.482H56.42c-.97 0-1.213.333-1.213 1.66v4.61h7.527v3.481h-7.527v9.976H52zM29.336 0h3.208v23.212h-3.208V0z" fill="#fff"/>
    <path d="m40.491 23.211-7.116-8.844c-.726-.884-.875-1.954-.875-3.083a4.808 4.808 0 0 1 .834-2.591L39.75.002h3.981l-7.343 9.519c-.391.53-.802.929-.802 1.724 0 .962.51 1.56.994 2.123l8.038 9.843H40.49z" fill="#fff"/>
</svg>
