<svg width="50" height="28" viewBox="0 0 50 28" fill="none" xmlns="http://www.w3.org/2000/svg">
<g clip-path="url(#clip0_889_124)">
<path d="M4.16985 21.3143H2.68598V20.5312H1.51485V21.3143H0.0332031V21.9836H0.898239C0.688339 22.1244 0.515394 22.3142 0.39413 22.5368C0.272866 22.7594 0.206874 23.0081 0.201774 23.2619C0.201774 24.1765 1.0535 24.9172 2.10042 24.9172C3.14733 24.9172 3.99906 24.1765 3.99906 23.2619C3.99509 23.0079 3.92958 22.7587 3.80821 22.536C3.68685 22.3132 3.51329 22.1236 3.3026 21.9836H4.16985V21.3143ZM2.10042 24.2368C1.65681 24.2368 1.27531 23.7906 1.27531 23.2574C1.27531 22.7242 1.64572 22.2803 2.10042 22.2803C2.55512 22.2803 2.92553 22.7265 2.92553 23.2574C2.92553 23.7884 2.55733 24.2368 2.10042 24.2368Z" fill="#C89D6A"/>
<path d="M2.66436 27.0897H6.27311V27.759H2.21631C2.11045 27.7673 2.00404 27.7529 1.90413 27.7168C1.80421 27.6806 1.71307 27.6235 1.63674 27.5493C1.56041 27.4751 1.50063 27.3854 1.46136 27.2861C1.42209 27.1869 1.40422 27.0804 1.40894 26.9737V25.4121H2.58007V27.0161C2.58063 27.0266 2.58327 27.0368 2.58784 27.0462C2.59242 27.0556 2.59882 27.064 2.60669 27.0709C2.61455 27.0778 2.62371 27.083 2.63362 27.0862C2.64353 27.0895 2.65398 27.0907 2.66436 27.0897Z" fill="#C89D6A"/>
<path d="M31.6983 27.0897H35.4933V27.759H31.2524C31.1466 27.7673 31.0402 27.7529 30.9403 27.7168C30.8403 27.6806 30.7492 27.6235 30.6729 27.5493C30.5965 27.4751 30.5368 27.3854 30.4975 27.2861C30.4582 27.1869 30.4404 27.0804 30.4451 26.9737V25.4121H31.6162V27.0161C31.6168 27.0264 31.6193 27.0364 31.6238 27.0457C31.6282 27.0549 31.6344 27.0632 31.642 27.0701C31.6497 27.0769 31.6586 27.0822 31.6682 27.0855C31.6779 27.0889 31.6881 27.0903 31.6983 27.0897Z" fill="#C89D6A"/>
<path d="M45.8985 27.0897H49.8311V27.7589H45.4526C45.3468 27.7673 45.2404 27.7529 45.1405 27.7167C45.0405 27.6806 44.9494 27.6235 44.8731 27.5492C44.7967 27.475 44.737 27.3853 44.6977 27.2861C44.6584 27.1868 44.6406 27.0804 44.6453 26.9737V25.7891H45.8164V27.025C45.8192 27.0443 45.8292 27.0618 45.8445 27.0739C45.8598 27.0859 45.8791 27.0916 45.8985 27.0897Z" fill="#C89D6A"/>
<path d="M12.0532 27.6502V25.5978H8.22038V24.9285H10.1523V23.9848H7.44629V23.3156H11.9312C12.0487 23.1728 12.0687 22.9252 12.0687 22.4232V21.2386H8.24478V20.5693H13.0712C13.1866 20.5693 13.2398 20.6407 13.2398 20.7657V22.1555C13.2398 22.7712 13.1112 23.0992 12.9537 23.3066H14.0804V23.9759H11.3234V24.9285H13.038C13.1622 24.9285 13.2221 25.02 13.2221 25.1516V27.7573H12.1818C12.1664 27.7588 12.1508 27.7573 12.1359 27.7527C12.1211 27.7481 12.1073 27.7407 12.0953 27.7307C12.0833 27.7208 12.0735 27.7085 12.0662 27.6947C12.059 27.6809 12.0545 27.6658 12.0532 27.6502Z" fill="#C89D6A"/>
<path d="M14.8252 23.9819V23.3126H19.3101C19.4254 23.1699 19.4476 22.9222 19.4476 22.4203V21.2357H15.6237V20.5664H20.4502C20.5655 20.5664 20.6187 20.6378 20.6187 20.7627V22.1526C20.6187 22.7683 20.4901 23.0962 20.3326 23.3037H21.4594V23.973L14.8252 23.9819Z" fill="#C89D6A"/>
<path d="M15.8698 24.9279H20.3658C20.4052 24.9318 20.4417 24.9505 20.468 24.9802C20.4943 25.01 20.5085 25.0487 20.5078 25.0885V27.6786C20.5081 27.6894 20.5062 27.7002 20.5021 27.7102C20.4981 27.7202 20.492 27.7293 20.4843 27.7369C20.4766 27.7444 20.4674 27.7503 20.4573 27.7541C20.4472 27.7579 20.4364 27.7595 20.4257 27.7589H16.5951C16.4888 27.7681 16.3818 27.7545 16.2811 27.719C16.1805 27.6834 16.0885 27.6267 16.0113 27.5527C15.9341 27.4786 15.8734 27.3889 15.8333 27.2894C15.7933 27.1899 15.7747 27.083 15.7789 26.9758V25.0104C15.7795 24.999 15.7823 24.9878 15.7871 24.9774C15.792 24.9671 15.7989 24.9578 15.8073 24.9501C15.8158 24.9425 15.8257 24.9366 15.8364 24.9327C15.8471 24.9289 15.8585 24.9273 15.8698 24.9279ZM17.0831 27.0985H19.3344V25.5971H16.95V26.9847C16.9528 27.0175 16.9684 27.0478 16.9933 27.0691C17.0182 27.0904 17.0505 27.101 17.0831 27.0985Z" fill="#C89D6A"/>
<path d="M27.3638 25.0483V24.379H28.8632V23.7097H26.3767C26.7123 23.5905 27.0045 23.3725 27.2154 23.0841C27.4262 22.7956 27.5459 22.4501 27.559 22.0923C27.559 21.104 26.6407 20.3076 25.5073 20.3076C24.3738 20.3076 23.4578 21.1085 23.4578 22.0923C23.4708 22.4501 23.5905 22.7956 23.8014 23.0841C24.0122 23.3725 24.3044 23.5905 24.64 23.7097H22.1514V24.379H23.653V25.0661C23.6564 25.1064 23.6751 25.1437 23.7053 25.1703C23.7355 25.197 23.7748 25.2108 23.8149 25.2089H24.2008C23.9864 25.3316 23.8065 25.5072 23.6781 25.7191C23.5496 25.931 23.4769 26.1723 23.4667 26.4203C23.4667 27.2926 24.3805 27.9998 25.5073 27.9998C26.634 27.9998 27.5501 27.2926 27.5501 26.4203C27.5399 26.1723 27.4671 25.931 27.3387 25.7191C27.2103 25.5072 27.0304 25.3316 26.8159 25.2089H27.1952C27.2382 25.2084 27.2795 25.1916 27.3108 25.1618C27.342 25.132 27.361 25.0915 27.3638 25.0483ZM25.5073 21.075C25.7129 21.0534 25.9202 21.0949 26.1018 21.1942C26.2835 21.2935 26.431 21.4458 26.5248 21.631C26.6187 21.8163 26.6545 22.0258 26.6275 22.232C26.6006 22.4381 26.5121 22.6312 26.3738 22.7858C26.2356 22.9404 26.054 23.0492 25.853 23.0978C25.652 23.1464 25.441 23.1327 25.248 23.0583C25.0549 22.9839 24.8888 22.8524 24.7716 22.6812C24.6543 22.5099 24.5914 22.307 24.5912 22.099C24.5785 21.8413 24.6677 21.5889 24.8393 21.3971C25.011 21.2052 25.2511 21.0895 25.5073 21.075ZM25.5073 27.3216C25.3362 27.3141 25.1711 27.2563 25.0324 27.1553C24.8938 27.0544 24.7877 26.9146 24.7273 26.7535C24.6669 26.5924 24.6548 26.417 24.6927 26.249C24.7306 26.0811 24.8166 25.9281 24.9402 25.8089C25.0638 25.6897 25.2195 25.6097 25.3879 25.5787C25.5563 25.5478 25.73 25.5673 25.8875 25.6348C26.045 25.7023 26.1794 25.8148 26.2738 25.9584C26.3683 26.102 26.4187 26.2704 26.4189 26.4426C26.4175 26.5609 26.3926 26.6778 26.3459 26.7864C26.2991 26.895 26.2313 26.9932 26.1465 27.0752C26.0617 27.1572 25.9615 27.2214 25.8517 27.2641C25.742 27.3068 25.6249 27.3271 25.5073 27.3238V27.3216ZM25.5073 24.8386C25.2695 24.8387 25.0329 24.8717 24.8041 24.9367V24.3768H26.2104V24.9367C25.9815 24.8723 25.7449 24.84 25.5073 24.8408V24.8386Z" fill="#C89D6A"/>
<path d="M38.9151 27.7591H39.9354V24.6649H42.6258V23.9956H41.559C41.7142 23.7882 41.8451 23.4602 41.8451 22.8467V20.8523C41.8451 20.7274 41.7919 20.6582 41.6743 20.6582H36.8501V21.3275H40.674V23.1122C40.674 23.6097 40.6518 23.8573 40.5365 24.0045H36.0693V24.6738H38.7643V27.632C38.7682 27.6687 38.7861 27.7024 38.8142 27.7261C38.8423 27.7498 38.8785 27.7617 38.9151 27.7591Z" fill="#C89D6A"/>
<path d="M48.5354 26.0439H49.589V20.5381H48.4156V24.9129H46.9961V25.4974H48.4156V25.9235C48.4147 25.9396 48.4171 25.9556 48.4228 25.9707C48.4285 25.9858 48.4372 25.9994 48.4486 26.0108C48.4599 26.0222 48.4735 26.0311 48.4885 26.0368C48.5034 26.0425 48.5194 26.0449 48.5354 26.0439Z" fill="#C89D6A"/>
<path d="M44.9977 25.4318H46.0491V24.6644H47.8435V23.9951H43.2832V24.6644H44.878V25.318C44.8783 25.3335 44.8816 25.3487 44.8878 25.3628C44.894 25.3769 44.9029 25.3896 44.9141 25.4002C44.9253 25.4108 44.9384 25.4191 44.9528 25.4245C44.9671 25.4299 44.9824 25.4324 44.9977 25.4318Z" fill="#C89D6A"/>
<path d="M34.0601 20.5381V21.2721H32.6893C32.4954 21.0742 32.2639 20.9176 32.0086 20.8114C31.7534 20.7053 31.4795 20.6518 31.2033 20.6541C30.0942 20.6541 29.207 21.4773 29.207 22.4924C29.207 23.5074 30.0942 24.3328 31.2033 24.3328C31.7493 24.337 32.2748 24.1236 32.6649 23.7394H34.0601V25.8766H35.2334V20.5381H34.0601ZM31.2033 23.5431C30.7197 23.5431 30.3294 23.0835 30.3294 22.5191C30.3294 21.9547 30.7197 21.4951 31.2033 21.4951C31.6868 21.4951 32.0749 21.9413 32.0749 22.5191C32.0749 23.0969 31.6846 23.5431 31.2033 23.5431ZM34.0601 23.0835H33.0864C33.157 22.8945 33.1931 22.6943 33.1928 22.4924C33.1924 22.2993 33.1594 22.1077 33.0952 21.9257H34.0601V23.0835Z" fill="#C89D6A"/>
<path d="M5.09235 25.8631H6.02171V22.867H7.19284V22.1977H6.02171V20.5312H4.85059V25.6422C4.85077 25.6731 4.85732 25.7036 4.86983 25.7318C4.88234 25.76 4.90053 25.7853 4.92326 25.8061C4.94599 25.8268 4.97275 25.8426 5.00185 25.8524C5.03096 25.8622 5.06178 25.8659 5.09235 25.8631Z" fill="#C89D6A"/>
<path d="M45.5586 20.4932C44.5073 20.4932 43.6533 21.2137 43.6533 22.1039C43.6533 22.994 44.5073 23.7146 45.5586 23.7146C46.61 23.7146 47.4617 22.994 47.4617 22.1039C47.4617 21.2137 46.61 20.4932 45.5586 20.4932ZM45.5586 23.0029C45.3847 23.0114 45.2122 22.9673 45.0634 22.8762C44.9146 22.7852 44.7964 22.6514 44.7239 22.4921C44.6514 22.3328 44.628 22.1554 44.6567 21.9826C44.6854 21.8098 44.765 21.6497 44.885 21.5228C45.0051 21.3959 45.1602 21.3081 45.3303 21.2707C45.5005 21.2333 45.6778 21.248 45.8396 21.3129C46.0013 21.3778 46.14 21.49 46.2378 21.635C46.3356 21.7799 46.388 21.951 46.3882 22.1262C46.3935 22.353 46.3092 22.5727 46.1537 22.7371C45.9981 22.9015 45.7841 22.9971 45.5586 23.0029Z" fill="#C89D6A"/>
<path d="M11.5049 11.2326H11.6845V11.9018C11.72 11.8483 11.7577 11.797 11.7932 11.7501L12.2191 11.2236H12.4409L11.9352 11.8193L12.483 12.6358H12.2612L11.8176 11.9464L11.6845 12.0981V12.6358H11.5049V11.2326Z" fill="#C89D6A"/>
<path d="M13.1353 12.6581C13.0461 12.6567 12.9581 12.6367 12.877 12.5992C12.7958 12.5618 12.7233 12.5078 12.6641 12.4406C12.6048 12.3735 12.5601 12.2947 12.5328 12.2092C12.5055 12.1237 12.4962 12.0335 12.5054 11.9442C12.5054 11.498 12.7804 11.208 13.1531 11.208C13.2421 11.2081 13.3302 11.2271 13.4114 11.2636C13.4927 11.3002 13.5654 11.3536 13.6249 11.4203C13.6843 11.487 13.7291 11.5655 13.7563 11.6508C13.7836 11.7361 13.7927 11.8262 13.783 11.9152C13.783 12.3993 13.4902 12.6581 13.1486 12.6581H13.1353ZM13.1353 12.5086C13.4215 12.5086 13.5789 12.2431 13.5789 11.9241C13.5789 11.6475 13.4326 11.3552 13.1353 11.3552C12.8381 11.3552 12.6917 11.6341 12.6917 11.9397C12.6917 12.2454 12.8559 12.5086 13.1353 12.5086Z" fill="#C89D6A"/>
<path d="M14.0159 11.2548C14.1298 11.2322 14.2458 11.2209 14.3619 11.2213C14.5069 11.2077 14.6516 11.249 14.7678 11.3373C14.8033 11.372 14.8312 11.4137 14.8499 11.4598C14.8686 11.5058 14.8777 11.5553 14.8765 11.605C14.8773 11.6847 14.8521 11.7626 14.8049 11.8266C14.7576 11.8906 14.6909 11.9374 14.6148 11.9597C14.6699 11.985 14.7177 12.0241 14.7534 12.0734C14.7892 12.1226 14.8117 12.1803 14.8188 12.2408C14.8411 12.3755 14.876 12.5077 14.9231 12.6357H14.7368C14.6938 12.5271 14.6626 12.4141 14.6436 12.2988C14.6015 12.107 14.526 12.0333 14.3641 12.0267H14.1933V12.6357H14.0137L14.0159 11.2548ZM14.1956 11.8906H14.3796C14.5748 11.8906 14.6946 11.7835 14.6946 11.6251C14.6946 11.4667 14.5637 11.3641 14.373 11.3641C14.3134 11.3622 14.2539 11.3674 14.1956 11.3797V11.8906Z" fill="#C89D6A"/>
<path d="M15.8478 11.9887H15.3066V12.4929H15.9121V12.6468H15.127V11.2324H15.8833V11.3841H15.3066V11.8303H15.8478V11.9887Z" fill="#C89D6A"/>
<path d="M16.3716 12.1944L16.2274 12.6405H16.0322L16.5069 11.2373H16.7287L17.2056 12.6405H17.0126L16.8618 12.1944H16.3716ZM16.8307 12.0538L16.6976 11.65C16.6688 11.5586 16.6488 11.4738 16.6267 11.3935C16.6111 11.4738 16.5867 11.5608 16.5601 11.65L16.4226 12.0538H16.8307Z" fill="#C89D6A"/>
<path d="M8.78149 13.6104V15.0136H8.59961V13.6104H8.78149Z" fill="#C89D6A"/>
<path d="M9.09668 15.0136V13.6104H9.2963L9.73991 14.3198C9.83253 14.4628 9.91552 14.6118 9.98833 14.766C9.97142 14.5753 9.96402 14.384 9.96615 14.1926V13.6104H10.1369V15.0136H9.95284L9.50923 14.3042C9.41391 14.1535 9.32798 13.997 9.25194 13.8357C9.25194 14.0119 9.25194 14.1815 9.25194 14.4157V15.0136H9.09668Z" fill="#C89D6A"/>
<path d="M10.4334 14.7926C10.531 14.8502 10.6419 14.881 10.755 14.8819C10.9391 14.8819 11.0478 14.7859 11.0478 14.6432C11.0478 14.5004 10.9724 14.4357 10.7838 14.3665C10.562 14.2884 10.4156 14.168 10.4156 13.9717C10.4183 13.9168 10.4322 13.863 10.4563 13.8137C10.4803 13.7644 10.5142 13.7205 10.5557 13.6848C10.5972 13.6491 10.6456 13.6223 10.6978 13.606C10.75 13.5897 10.8049 13.5843 10.8592 13.5902C10.9645 13.5871 11.0688 13.61 11.1631 13.6571L11.1121 13.8066C11.0327 13.7626 10.9432 13.7403 10.8526 13.7419C10.6618 13.7419 10.5909 13.8534 10.5909 13.9516C10.5909 14.0497 10.6729 14.1434 10.8659 14.2193C11.1032 14.313 11.2208 14.4245 11.2208 14.6298C11.2208 14.835 11.0633 15.0336 10.735 15.0336C10.6102 15.0341 10.4873 15.0026 10.3779 14.9421L10.4334 14.7926Z" fill="#C89D6A"/>
<path d="M11.742 13.7733H11.3184V13.6172H12.3497V13.7733H11.9239V15.0204H11.742V13.7733Z" fill="#C89D6A"/>
<path d="M12.6868 13.6104V15.0136H12.5049V13.6104H12.6868Z" fill="#C89D6A"/>
<path d="M13.2635 13.7733H12.8398V13.6172H13.8735V13.7733H13.4454V15.0204H13.2635V13.7733Z" fill="#C89D6A"/>
<path d="M14.2091 13.6104V14.4425C14.2091 14.7526 14.3467 14.8887 14.5352 14.8887C14.7237 14.8887 14.8723 14.7526 14.8723 14.4425V13.6104H15.0542V14.4425C15.0542 14.873 14.8324 15.0471 14.5263 15.0471C14.2202 15.0471 14.0361 14.873 14.0361 14.4425V13.617L14.2091 13.6104Z" fill="#C89D6A"/>
<path d="M15.6329 13.7733H15.207V13.6172H16.2406V13.7733H15.8103V15.0204H15.6307L15.6329 13.7733Z" fill="#C89D6A"/>
<path d="M17.1144 14.3577H16.5754V14.8619H17.1787V15.0136H16.3936V13.6104H17.141V13.7732H16.5688V14.2194H17.1078L17.1144 14.3577Z" fill="#C89D6A"/>
<path d="M7.38143 17.4146C7.29255 17.414 7.2048 17.3945 7.12388 17.3575C7.04296 17.3205 6.97067 17.2668 6.91169 17.2C6.85272 17.1331 6.80838 17.0545 6.78155 16.9692C6.75472 16.884 6.74599 16.7941 6.75594 16.7052C6.75594 16.259 7.02876 15.9668 7.40139 15.9668C7.77402 15.9668 8.03131 16.259 8.03131 16.6762C8.03131 17.1581 7.73853 17.4146 7.38586 17.4146H7.38143ZM7.39252 17.2674C7.67865 17.2674 7.83613 17.0042 7.83613 16.6851C7.83613 16.4063 7.69195 16.114 7.39252 16.114C7.09308 16.114 6.94891 16.3974 6.94891 16.7008C6.94891 17.0042 7.10861 17.2674 7.39252 17.2674Z" fill="#C89D6A"/>
<path d="M8.25586 15.9912H9.00777V16.1429H8.43774V16.6092H8.96341V16.7586H8.43774V17.3922H8.25586V15.9912Z" fill="#C89D6A"/>
<path d="M9.70215 15.9912H10.4541V16.1429H9.88403V16.6092H10.4097V16.7586H9.88403V17.3922H9.70215V15.9912Z" fill="#C89D6A"/>
<path d="M10.8931 15.9912V17.3922H10.709V15.9912H10.8931Z" fill="#C89D6A"/>
<path d="M11.2051 17.3924V15.9913H11.4069L11.8505 16.7008C11.9408 16.8452 12.0237 16.9941 12.099 17.147C12.0834 16.9551 12.079 16.7855 12.079 16.5714V15.9824H12.2609V17.3834H12.0812L11.6376 16.6695C11.5385 16.5239 11.4503 16.371 11.3737 16.2122C11.3737 16.3907 11.387 16.558 11.387 16.79V17.3901L11.2051 17.3924Z" fill="#C89D6A"/>
<path d="M12.7934 16.9505L12.647 17.3967H12.4629L12.9265 15.9912H13.1483L13.6229 17.3922H13.4366L13.2858 16.946L12.7934 16.9505ZM13.2503 16.8077L13.1106 16.4062C13.0839 16.3147 13.0618 16.2321 13.0418 16.1518C13.0218 16.2321 13.0019 16.3192 12.973 16.4039L12.8355 16.8077H13.2503Z" fill="#C89D6A"/>
<path d="M13.834 17.3924V15.9913H14.0358L14.4794 16.7008C14.5722 16.8432 14.6545 16.9924 14.7256 17.147C14.7079 16.9551 14.7035 16.7855 14.7035 16.5714V15.9824H14.872V17.3834H14.7012L14.2576 16.674C14.1605 16.5252 14.0745 16.3694 14.0003 16.2077C14.0003 16.3862 14.0003 16.5535 14.0003 16.7855V17.3857L13.834 17.3924Z" fill="#C89D6A"/>
<path d="M16.1675 17.3433C16.0513 17.393 15.9254 17.4159 15.7993 17.4102C15.7061 17.416 15.6129 17.4015 15.5258 17.3678C15.4387 17.3341 15.3599 17.2819 15.2946 17.2148C15.2294 17.1477 15.1793 17.0673 15.1477 16.9789C15.1161 16.8906 15.1038 16.7965 15.1117 16.703C15.1059 16.6052 15.1207 16.5073 15.1552 16.4156C15.1897 16.324 15.243 16.2407 15.3117 16.1712C15.3803 16.1017 15.4628 16.0476 15.5537 16.0123C15.6446 15.9771 15.7419 15.9616 15.8392 15.9668C15.953 15.9634 16.0664 15.9839 16.1719 16.027L16.1253 16.1765C16.0385 16.136 15.9437 16.1162 15.8481 16.1185C15.7729 16.1145 15.6979 16.127 15.628 16.155C15.5582 16.1831 15.4952 16.2261 15.4436 16.2811C15.3919 16.336 15.3527 16.4016 15.3287 16.4733C15.3047 16.545 15.2965 16.6211 15.3046 16.6963C15.2963 16.7698 15.3042 16.8441 15.3276 16.9142C15.3511 16.9842 15.3896 17.0483 15.4404 17.1017C15.4912 17.1551 15.553 17.1967 15.6216 17.2234C15.6901 17.2501 15.7636 17.2613 15.837 17.2563C15.938 17.2578 16.0384 17.2388 16.132 17.2005L16.1675 17.3433Z" fill="#C89D6A"/>
<path d="M17.1144 16.7341H16.5754V17.2405H17.1787V17.3922H16.3936V15.9912H17.141V16.1429H16.5688V16.5891H17.1078L17.1144 16.7341Z" fill="#C89D6A"/>
<path d="M4.82353 2.42499C4.82397 2.90524 4.68275 3.37482 4.41775 3.77431C4.15275 4.17381 3.77588 4.48526 3.33483 4.66925C2.89378 4.85323 2.40837 4.90149 1.94005 4.8079C1.47172 4.71432 1.04152 4.4831 0.70389 4.14352C0.36626 3.80393 0.136377 3.37124 0.0433328 2.9002C-0.0497114 2.42916 -0.00173434 1.94094 0.181192 1.49733C0.364119 1.05372 0.673772 0.674668 1.07097 0.408131C1.46816 0.141595 1.93504 -0.000440177 2.41252 1.02476e-06C3.05196 1.02476e-06 3.66521 0.25549 4.11736 0.710263C4.56951 1.16504 4.82353 1.78184 4.82353 2.42499Z" fill="#C4102F"/>
<path d="M11.1522 2.42499C11.1531 2.90568 11.0121 3.37582 10.7473 3.77593C10.4824 4.17604 10.1054 4.48812 9.66416 4.67268C9.22287 4.85725 8.73707 4.90599 8.26823 4.81276C7.79938 4.71952 7.36858 4.48849 7.03033 4.14891C6.69208 3.80932 6.46159 3.37644 6.36803 2.90505C6.27447 2.43367 6.32204 1.94496 6.50473 1.50077C6.68742 1.05659 6.99701 0.676898 7.39432 0.409749C7.79164 0.1426 8.25881 1.83692e-06 8.73673 1.02626e-06C9.05364 -0.000292074 9.36751 0.0621998 9.66041 0.183908C9.9533 0.305617 10.2195 0.484158 10.4438 0.709339C10.6681 0.93452 10.8461 1.20193 10.9676 1.4963C11.0892 1.79067 11.1519 2.10624 11.1522 2.42499Z" fill="#C4102F"/>
<path d="M17.4784 2.42499C17.4792 2.90568 17.3383 3.37582 17.0734 3.77593C16.8086 4.17604 16.4316 4.48812 15.9903 4.67268C15.549 4.85725 15.0632 4.90599 14.5944 4.81276C14.1256 4.71952 13.6948 4.48849 13.3565 4.14891C13.0183 3.80932 12.7878 3.37644 12.6942 2.90505C12.6006 2.43367 12.6482 1.94496 12.8309 1.50077C13.0136 1.05659 13.3232 0.676897 13.7205 0.409748C14.1178 0.142599 14.585 8.1066e-07 15.0629 0C15.7026 0.000587818 16.3159 0.256124 16.7687 0.710642C17.2214 1.16516 17.4766 1.78161 17.4784 2.42499Z" fill="#C4102F"/>
<path d="M4.8245 8.78757C4.8245 9.26772 4.68291 9.73709 4.41765 10.1363C4.15238 10.5355 3.77535 10.8466 3.33426 11.0302C2.89317 11.2139 2.40784 11.2618 1.93966 11.168C1.47148 11.0741 1.04149 10.8428 0.704082 10.5031C0.366674 10.1634 0.137012 9.73071 0.0441474 9.25973C-0.0487169 8.78875 -0.000610618 8.30064 0.182381 7.85717C0.365373 7.41369 0.675027 7.03476 1.07217 6.76833C1.46932 6.50189 1.93611 6.35991 2.41349 6.36035C2.7303 6.36035 3.044 6.42315 3.33666 6.54516C3.62932 6.66716 3.89521 6.84599 4.11912 7.0714C4.34303 7.29682 4.52058 7.56441 4.64161 7.85888C4.76265 8.15335 4.82479 8.46893 4.8245 8.78757Z" fill="#C4102F"/>
<path d="M11.1522 8.78757C11.1526 9.26816 11.0113 9.73809 10.7462 10.1379C10.481 10.5377 10.104 10.8495 9.66263 11.0337C9.2213 11.2179 8.73556 11.2663 8.26687 11.1728C7.79817 11.0793 7.36757 10.8481 7.02954 10.5085C6.69151 10.1688 6.46125 9.73591 6.36786 9.26458C6.27448 8.79325 6.32219 8.30466 6.50494 7.86061C6.6877 7.41655 6.99729 7.03699 7.39456 6.76994C7.79182 6.50289 8.25891 6.36035 8.73674 6.36035C9.05383 6.36006 9.36788 6.42262 9.66092 6.54447C9.95396 6.66632 10.2203 6.84506 10.4446 7.07048C10.6689 7.2959 10.8469 7.56357 10.9683 7.8582C11.0897 8.15283 11.1522 8.46863 11.1522 8.78757Z" fill="#C4102F"/>
<path d="M4.8245 15.1479C4.8245 15.6281 4.68291 16.0974 4.41765 16.4966C4.15238 16.8958 3.77535 17.2069 3.33426 17.3906C2.89317 17.5742 2.40784 17.6222 1.93966 17.5283C1.47148 17.4345 1.04149 17.2031 0.704082 16.8634C0.366674 16.5238 0.137012 16.0911 0.0441474 15.6201C-0.0487169 15.1491 -0.000610618 14.661 0.182381 14.2175C0.365373 13.774 0.675027 13.3951 1.07217 13.1287C1.46932 12.8622 1.93611 12.7203 2.41349 12.7207C2.7303 12.7207 3.044 12.7835 3.33666 12.9055C3.62932 13.0275 3.89521 13.2063 4.11912 13.4318C4.34303 13.6572 4.52058 13.9248 4.64161 14.2192C4.76265 14.5137 4.82479 14.8293 4.8245 15.1479Z" fill="#C4102F"/>
<path d="M34.8848 17.5658V0.00195312H37.3246V17.5658H34.8848Z" fill="#C4102F"/>
<path d="M39.543 17.5658V2.63664C39.543 0.628836 40.3193 0.00195312 41.4261 0.00195312H49.828V2.63664H42.9055C42.1669 2.63664 41.9828 2.88873 41.9828 3.89264V7.38176H47.7076V10.0165H41.9828V17.5658H39.543Z" fill="#C4102F"/>
<path d="M22.3066 0H24.7465V17.5661H22.3066V0Z" fill="#C4102F"/>
<path d="M30.7903 17.5658L25.3783 10.8731C24.826 10.2038 24.7129 9.39403 24.7129 8.5396C24.7304 7.83783 24.9508 7.1564 25.3473 6.57864L30.2269 0.00195312H33.2546L27.6695 7.20552C27.3723 7.60708 27.0596 7.90826 27.0596 8.5106C27.0596 9.23787 27.4477 9.69074 27.8159 10.1168L33.9288 17.5658H30.7903Z" fill="#C4102F"/>
</g>
<defs>
<clipPath id="clip0_889_124">
<rect width="49.8305" height="28" fill="white"/>
</clipPath>
</defs>
</svg>
